<svg xmlns="http://www.w3.org/2000/svg" width="175" height="32" viewBox="0 0 239 36"><g fill="#888"><path d="M11.75 0v7.43L4.25 0H0v4.223l7.477 7.454H0v5.14h16.92V0h-5.17ZM0 24.317h7.477L0 31.771V36h4.25l7.5-7.437V36h5.17V19.183H0v5.134ZM19.787 5.134h7.477l-7.477 7.454v4.229h4.249l7.5-7.437v7.437h5.166V0H19.787v5.134ZM24.952 36v-7.43l7.5 7.43h4.25v-4.23l-7.477-7.454h7.477v-5.134H19.787V36h5.165Zm20.493-18.968c0-6.579 4.751-11.579 11.276-11.579 5.78 0 9.684 3.51 11.062 8.133h-3.999c-.846-2.854-3.31-5.059-7.155-5.059-4.436 0-7.623 3.324-7.623 8.568 0 4.937 3.029 8.661 8.025 8.661 4.156 0 6.777-2.547 7.401-6.364h-7.74V16.66h11.37c.123 7.141-4.278 12.014-11.154 12.014-6.46 0-11.463-4.873-11.463-11.642Zm28.46 11.178h-3.157V11.752h2.935v3.475c1.156-2.268 3.654-3.695 6.374-3.695v3.26c-3.56-.185-6.152 1.363-6.152 5v8.417Zm6.029-8.319c0-4.873 3.345-8.446 7.903-8.446 4.938 0 8.219 3.973 7.653 9.316H83.15c.251 3.353 1.938 5.308 4.717 5.308 2.34 0 3.968-1.27 4.5-3.417h3.123c-.812 3.666-3.654 5.87-7.56 5.87-4.78-.005-7.996-3.45-7.996-8.631Zm3.246-1.212h8.965c-.158-3.046-1.81-4.873-4.372-4.873-2.527 0-4.249 1.798-4.593 4.873Zm19.214 15.523h-3.437l2.375-6.207-6.531-16.237h3.402l4.81 12.541 4.465-12.54h3.187l-8.271 22.443Zm25.145-5.685c-5.405 0-8.685-2.947-8.965-7.39h3.496c.157 2.825 1.967 4.658 5.405 4.658 2.842 0 4.967-1.334 4.967-3.632 0-1.862-1.22-2.796-3.812-3.352l-3.251-.621c-3.157-.62-6.029-2.204-6.029-5.992 0-3.76 3.309-6.584 7.967-6.584 4.652 0 8.184 2.825 8.464 7.262h-3.496c-.187-2.668-2.125-4.53-4.939-4.53-2.906 0-4.5 1.705-4.5 3.631 0 2.112 1.845 2.854 3.935 3.29l3.309.649c3.84.777 6 2.454 6 5.777.006 3.887-3.117 6.834-8.551 6.834Zm9.368-8.533c0-4.873 3.438-8.539 8.125-8.539 4.687 0 8.125 3.666 8.125 8.539 0 4.872-3.438 8.539-8.125 8.539-4.687-.006-8.125-3.666-8.125-8.54Zm12.999 0c0-3.603-2.154-5.743-4.874-5.743-2.72 0-4.845 2.14-4.845 5.743 0 3.602 2.125 5.777 4.845 5.777 2.72-.005 4.874-2.18 4.874-5.777Zm6.187 8.226V14.427h-3.654v-2.668h3.654v-1.213c0-3.167 1.716-4.907 4.844-4.907.94 0 1.687.156 2.311.406V8.59c-.502-.214-1.062-.278-1.622-.278-1.5 0-2.376.684-2.376 2.268v1.178h4.623v2.668h-4.623V28.21h-3.157Z"/><path d="M175.394 27.931c-.968.435-1.809.592-2.813.592-3.058 0-5.183-1.648-5.183-5.279v-8.817h-3.654v-2.668h3.654V6.885h3.158v4.872h4.996l.274 2.669h-5.276v8.104c0 2.268 1.092 3.074 2.778 3.074.747 0 1.407-.122 2.061-.435v2.761h.005Z"/><path d="m186.736 15.976-3.782 12.233h-3.187l-4.78-16.457h3.093l3.344 11.985 3.747-11.984h3.123l3.689 12.013 3.345-12.013h3.122l-4.809 16.456h-3.158l-3.747-12.233Zm22.395 9.687c-1.033 1.833-2.872 2.854-5.311 2.854-3.438 0-5.685-1.955-5.685-4.965 0-3.231 2.592-4.908 7.529-4.908.969 0 1.751.03 3.094.186v-1.213c0-2.36-1.279-3.695-3.467-3.695-2.312 0-3.718 1.363-3.812 3.666h-2.871c.157-3.695 2.813-6.149 6.683-6.149 4.091 0 6.467 2.298 6.467 6.207v10.558h-2.627v-2.54Zm-4.687.62c2.656 0 4.314-1.647 4.314-4.158V20.79a21.493 21.493 0 0 0-2.907-.185c-3.158 0-4.716.934-4.716 2.854 0 1.705 1.278 2.825 3.309 2.825Zm12.713 1.927h-3.158V11.752h2.936v3.475c1.156-2.268 3.654-3.695 6.374-3.695v3.26c-3.561-.185-6.152 1.363-6.152 5v8.417Zm6.029-8.319c0-4.873 3.345-8.446 7.903-8.446 4.938 0 8.219 3.973 7.652 9.316h-12.333c.251 3.353 1.938 5.308 4.716 5.308 2.341 0 3.969-1.27 4.501-3.417h3.122c-.811 3.666-3.654 5.87-7.558 5.87-4.781-.005-8.003-3.45-8.003-8.631Zm3.252-1.212h8.964c-.157-3.046-1.809-4.873-4.371-4.873-2.533 0-4.249 1.798-4.593 4.873Z"/></g></svg>
